<svg width="20" height="20" viewBox="0 0 20 20" fill="none" xmlns="http://www.w3.org/2000/svg">
<path d="M17.7605 7.9948H11.9011V2.13543C11.9011 1.41643 11.318 0.833344 10.599 0.833344H9.29692C8.57792 0.833344 7.99483 1.41643 7.99483 2.13543V7.9948H2.13546C1.41646 7.9948 0.833374 8.57789 0.833374 9.29688V10.599C0.833374 11.318 1.41646 11.9011 2.13546 11.9011H7.99483V17.7604C7.99483 18.4794 8.57792 19.0625 9.29692 19.0625H10.599C11.318 19.0625 11.9011 18.4794 11.9011 17.7604V11.9011H17.7605C18.4795 11.9011 19.0625 11.318 19.0625 10.599V9.29688C19.0625 8.57789 18.4795 7.9948 17.7605 7.9948Z" fill="#231942"/>
</svg>
