<svg width="30" height="30" viewBox="0 0 30 30" fill="none" xmlns="http://www.w3.org/2000/svg">
<path d="M8.75 26.25C8.0625 26.25 7.47375 26.005 6.98375 25.515C6.49375 25.025 6.24917 24.4367 6.25 23.75V7.5C5.89584 7.5 5.59875 7.38 5.35875 7.14C5.11875 6.9 4.99917 6.60334 5 6.25C5 5.89584 5.12 5.59875 5.36 5.35875C5.6 5.11875 5.89667 4.99917 6.25 5H11.25C11.25 4.64584 11.37 4.34875 11.61 4.10875C11.85 3.86875 12.1467 3.74917 12.5 3.75H17.5C17.8542 3.75 18.1513 3.87 18.3913 4.11C18.6313 4.35 18.7508 4.64667 18.75 5H23.75C24.1042 5 24.4013 5.12 24.6413 5.36C24.8813 5.6 25.0008 5.89667 25 6.25C25 6.60417 24.88 6.90125 24.64 7.14125C24.4 7.38125 24.1033 7.50084 23.75 7.5V23.75C23.75 24.4375 23.505 25.0263 23.015 25.5163C22.525 26.0063 21.9367 26.2508 21.25 26.25H8.75ZM8.75 7.5V23.75H21.25V7.5H8.75ZM15 17.375L17.375 19.75C17.625 19.9792 17.9221 20.0938 18.2663 20.0938C18.6104 20.0938 18.8967 19.9792 19.125 19.75C19.375 19.5 19.5 19.2029 19.5 18.8588C19.5 18.5146 19.375 18.2283 19.125 18L16.75 15.625L19.125 13.25C19.375 13 19.5 12.7029 19.5 12.3588C19.5 12.0146 19.375 11.7283 19.125 11.5C18.8958 11.25 18.6092 11.125 18.265 11.125C17.9208 11.125 17.6242 11.25 17.375 11.5L15 13.875L12.625 11.5C12.3958 11.25 12.1092 11.125 11.765 11.125C11.4208 11.125 11.1242 11.25 10.875 11.5C10.6458 11.7292 10.5313 12.0158 10.5313 12.36C10.5313 12.7042 10.6458 13.0008 10.875 13.25L13.25 15.625L10.875 18C10.6458 18.2292 10.5313 18.5158 10.5313 18.86C10.5313 19.2042 10.6458 19.5008 10.875 19.75C11.125 19.9792 11.4221 20.0938 11.7663 20.0938C12.1104 20.0938 12.3967 19.9792 12.625 19.75L15 17.375Z" fill="#231942"/>
</svg>
