<svg width="24" height="24" viewBox="0 0 24 24" fill="none" xmlns="http://www.w3.org/2000/svg">
    <path
            fill-rule="evenodd"
            clip-rule="evenodd"
            d="M7.25002 17L14.75 12L7.25002 6.99999C7.15153 6.93433 7.06694 6.84991 7.00107 6.75156C6.9352 6.6532 6.88935 6.54284 6.86614 6.42677C6.84292 6.31069 6.8428 6.19118 6.86577 6.07506C6.88874 5.95894 6.93436 5.84848 7.00002 5.74999C7.13263 5.55108 7.33882 5.41299 7.57324 5.36611C7.68932 5.34289 7.80883 5.34277 7.92495 5.36574C8.04107 5.38871 8.15153 5.43433 8.25002 5.49999L16.752 11.168C16.889 11.2593 17.0013 11.383 17.0789 11.5282C17.1566 11.6733 17.1972 11.8354 17.1972 12C17.1972 12.1646 17.1566 12.3267 17.0789 12.4718C17.0013 12.6169 16.889 12.7407 16.752 12.832L8.25002 18.5C8.15153 18.5657 8.04107 18.6113 7.92495 18.6342C7.80883 18.6572 7.68932 18.6571 7.57324 18.6339C7.45717 18.6107 7.34681 18.5648 7.24845 18.4989C7.1501 18.4331 7.06568 18.3485 7.00002 18.25C6.93436 18.1515 6.88874 18.041 6.86577 17.9249C6.8428 17.8088 6.84292 17.6893 6.86614 17.5732C6.88935 17.4571 6.9352 17.3468 7.00107 17.2484C7.06694 17.1501 7.15153 17.0657 7.25002 17Z"
            fill="#231942"
            stroke="#231942"
            stroke-width="2"
    />
</svg>
