<svg width="24" height="24" viewBox="0 0 24 24" fill="none" xmlns="http://www.w3.org/2000/svg">
    <path
            fill-rule="evenodd"
            clip-rule="evenodd"
            d="M16.75 17L9.25002 12L16.75 6.99999C16.8485 6.93433 16.9331 6.84991 16.999 6.75156C17.0648 6.6532 17.1107 6.54284 17.1339 6.42677C17.1571 6.31069 17.1572 6.19118 17.1343 6.07506C17.1113 5.95894 17.0657 5.84848 17 5.74999C16.9344 5.6515 16.8499 5.5669 16.7516 5.50104C16.6532 5.43517 16.5429 5.38932 16.4268 5.36611C16.3107 5.34289 16.1912 5.34277 16.0751 5.36574C15.959 5.38871 15.8485 5.43433 15.75 5.49999L7.24802 11.168C7.11106 11.2593 6.99877 11.383 6.9211 11.5282C6.84343 11.6733 6.8028 11.8354 6.8028 12C6.8028 12.1646 6.84343 12.3267 6.9211 12.4718C6.99877 12.6169 7.11106 12.7407 7.24802 12.832L15.75 18.5C15.8485 18.5657 15.959 18.6113 16.0751 18.6342C16.1912 18.6572 16.3107 18.6571 16.4268 18.6339C16.5429 18.6107 16.6532 18.5648 16.7516 18.4989C16.8499 18.4331 16.9344 18.3485 17 18.25C17.0657 18.1515 17.1113 18.041 17.1343 17.9249C17.1572 17.8088 17.1571 17.6893 17.1339 17.5732C17.1107 17.4571 17.0648 17.3468 16.999 17.2484C16.9331 17.1501 16.8485 17.0657 16.75 17Z"
            fill="#231942"
            stroke="#231942"
            stroke-width="2"
    />
</svg>
