<svg width="32" height="32" viewBox="0 0 32 32" fill="none" xmlns="http://www.w3.org/2000/svg">
<path d="M12.3333 29.3333L11.8 25.0666C11.5111 24.9555 11.2386 24.8222 10.9826 24.6666C10.7266 24.5111 10.4769 24.3444 10.2333 24.1666L6.26664 25.8333L2.59998 19.5L6.03331 16.9C6.01109 16.7444 5.99998 16.5942 5.99998 16.4493V15.5506C5.99998 15.4057 6.01109 15.2555 6.03331 15.1L2.59998 12.5L6.26664 6.16663L10.2333 7.83329C10.4778 7.65551 10.7333 7.48885 11 7.33329C11.2666 7.17774 11.5333 7.0444 11.8 6.93329L12.3333 2.66663H19.6666L20.2 6.93329C20.4889 7.0444 20.7613 7.17774 21.0173 7.33329C21.2733 7.48885 21.5231 7.65551 21.7666 7.83329L25.7333 6.16663L29.4 12.5L25.9666 15.1C25.9889 15.2555 26 15.4057 26 15.5506V16.4493C26 16.5942 25.9778 16.7444 25.9333 16.9L29.3666 19.5L25.7 25.8333L21.7666 24.1666C21.5222 24.3444 21.2666 24.5111 21 24.6666C20.7333 24.8222 20.4666 24.9555 20.2 25.0666L19.6666 29.3333H12.3333ZM16.0666 20.6666C17.3555 20.6666 18.4555 20.2111 19.3666 19.3C20.2778 18.3888 20.7333 17.2888 20.7333 16C20.7333 14.7111 20.2778 13.6111 19.3666 12.7C18.4555 11.7888 17.3555 11.3333 16.0666 11.3333C14.7555 11.3333 13.6498 11.7888 12.7493 12.7C11.8489 13.6111 11.3991 14.7111 11.4 16C11.4 17.2888 11.8498 18.3888 12.7493 19.3C13.6489 20.2111 14.7546 20.6666 16.0666 20.6666Z" fill="#5E548E"/>
</svg>
